{"accessors" : [{"bufferView" : 0, "byteOffset" : 0, "componentType" : 5123, "count" : 39600, "type" : "SCALAR", "max" : [33596], "min" : [0]}, {"bufferView" : 1, "byteOffset" : 0, "componentType" : 5126, "count" : 33597, "type" : "VEC3", "max" : [36.15123748779297, 105.52066802978516, 42.10991668701172], "min" : [-36.174007415771484, -0.3659830093383789, -24.849945068359375], "name" : "POSITION"}, {"bufferView" : 1, "byteOffset" : 12, "componentType" : 5126, "count" : 33597, "type" : "VEC3", "max" : [0.9999599456787109, 0.9998296499252319, 0.9999526739120483], "min" : [-0.9999755024909973, -0.9999916553497314, -0.9999271631240845], "name" : "NORMAL"}, {"bufferView" : 1, "byteOffset" : 24, "componentType" : 5126, "count" : 33597, "type" : "VEC2", "max" : [0.9850879907608032, -0.010723000392317772], "min" : [0.006926999893039465, -0.38197600841522217], "name" : "TEXCOORD_0"}, {"bufferView" : 0, "byteOffset" : 79200, "componentType" : 5123, "count" : 138, "type" : "SCALAR", "max" : [116], "min" : [0]}, {"bufferView" : 2, "byteOffset" : 0, "componentType" : 5126, "count" : 117, "type" : "VEC3", "max" : [12.882620811462402, 101.23255920410156, 12.276217460632324], "min" : [-12.446202278137207, 99.78260803222656, -12.43735408782959], "name" : "POSITION"}, {"bufferView" : 2, "byteOffset" : 12, "componentType" : 5126, "count" : 117, "type" : "VEC3", "max" : [-0.03641614317893982, 0.9993409514427185, 0.0074760341085493565], "min" : [-0.051078200340270996, 0.9986989498138428, -0.009207038208842278], "name" : "NORMAL"}, {"bufferView" : 2, "byteOffset" : 24, "componentType" : 5126, "count" : 117, "type" : "VEC2", "max" : [0.48803800344467163, -0.2049030065536499], "min" : [0.4037019908428192, -0.28923898935317993], "name" : "TEXCOORD_0"}, {"bufferView" : 0, "byteOffset" : 79476, "componentType" : 5123, "count" : 25062, "type" : "SCALAR", "max" : [25061], "min" : [0]}, {"bufferView" : 3, "byteOffset" : 0, "componentType" : 5126, "count" : 25062, "type" : "VEC3", "max" : [42.171974182128906, 180.9982147216797, 32.43292999267578], "min" : [-42.16494369506836, 95.76142120361328, -38.13799285888672], "name" : "POSITION"}, {"bufferView" : 3, "byteOffset" : 12, "componentType" : 5126, "count" : 25062, "type" : "VEC3", "max" : [0.9993885159492493, 0.999985933303833, 0.9994415044784546], "min" : [-0.9993385076522827, -0.9998001456260681, -0.9999789595603943], "name" : "NORMAL"}, {"bufferView" : 3, "byteOffset" : 24, "componentType" : 5126, "count" : 25062, "type" : "VEC2", "max" : [0.9900230169296265, -0.27171599864959717], "min" : [0.007584000006318092, -0.9867240190505981], "name" : "TEXCOORD_0"}, {"bufferView" : 0, "byteOffset" : 129600, "componentType" : 5123, "count" : 21600, "type" : "SCALAR", "max" : [18939], "min" : [0]}, {"bufferView" : 4, "byteOffset" : 0, "componentType" : 5126, "count" : 18940, "type" : "VEC3", "max" : [8.505777359008789, 71.68657684326172, 28.859294891357422], "min" : [-40.12359619140625, 49.42695236206055, 17.877342224121094], "name" : "POSITION"}, {"bufferView" : 4, "byteOffset" : 12, "componentType" : 5126, "count" : 18940, "type" : "VEC3", "max" : [0.9998135566711426, 0.9977170825004578, 0.9986168146133423], "min" : [-0.9998136758804321, -0.9977179169654846, -0.9986167550086975], "name" : "NORMAL"}, {"bufferView" : 4, "byteOffset" : 24, "componentType" : 5126, "count" : 18940, "type" : "VEC2", "max" : [1, -0], "min" : [0, -1], "name" : "TEXCOORD_0"}], "asset" : {"generator" : "Aspose.3D 23.9.0", "version" : "2.0"}, "buffers" : [{"uri" : "data:application/octet-stream;base64,", "byteLength" : 2937620}], "bufferViews" : [{"buffer" : 0, "byteOffset" : 0, "byteLength" : 172800, "target" : 34963}, {"buffer" : 0, "byteOffset" : 172804, "byteLength" : 1267200, "byteStride" : 32, "target" : 34962}, {"buffer" : 0, "byteOffset" : 1440008, "byteLength" : 4416, "byteStride" : 32, "target" : 34962}, {"buffer" : 0, "byteOffset" : 1444428, "byteLength" : 801984, "byteStride" : 32, "target" : 34962}, {"buffer" : 0, "byteOffset" : 2246416, "byteLength" : 691200, "byteStride" : 32, "target" : 34962}], "materials" : [{"name" : "Default_Material", "pbrMetallicRoughness" : {"baseColorFactor" : [0.5, 0.5, 0.5, 1], "metallicFactor" : 0, "roughnessFactor" : 0}, "emissiveFactor" : [0, 0, 0], "alphaMode" : "OPAQUE", "doubleSided" : false}, {"name" : "lambert1", "pbrMetallicRoughness" : {"baseColorFactor" : [0.4, 0.4, 0.4, 1], "metallicFactor" : 0, "roughnessFactor" : 0}, "emissiveFactor" : [0, 0, 0], "alphaMode" : "OPAQUE", "doubleSided" : false}, {"name" : "Default_Material", "pbrMetallicRoughness" : {"baseColorFactor" : [0.5, 0.5, 0.5, 1], "metallicFactor" : 0, "roughnessFactor" : 0}, "emissiveFactor" : [0, 0, 0], "alphaMode" : "OPAQUE", "doubleSided" : false}, {"name" : "weapon_Lambert", "pbrMetallicRoughness" : {"baseColorFactor" : [0.3608, 0.190002, 0.099581, 1], "metallicFactor" : 0, "roughnessFactor" : 0}, "emissiveFactor" : [0, 0, 0], "alphaMode" : "OPAQUE", "doubleSided" : false}], "meshes" : [{"primitives" : [{"attributes" : {"POSITION" : 1, "NORMAL" : 2, "TEXCOORD_0" : 3}, "indices" : 0, "material" : 0, "mode" : 4}, {"attributes" : {"POSITION" : 5, "NORMAL" : 6, "TEXCOORD_0" : 7}, "indices" : 4, "material" : 1, "mode" : 4}], "name" : ""}, {"primitives" : [{"attributes" : {"POSITION" : 9, "NORMAL" : 10, "TEXCOORD_0" : 11}, "indices" : 8, "material" : 2, "mode" : 4}], "name" : ""}, {"primitives" : [{"attributes" : {"POSITION" : 13, "NORMAL" : 14, "TEXCOORD_0" : 15}, "indices" : 12, "material" : 3, "mode" : 4}], "name" : ""}], "nodes" : [{"mesh" : 0, "name" : "body_GEO"}, {"mesh" : 1, "name" : "head_GEO"}, {"matrix" : [1, 0, 0, 0, 0, 1, 0, 0, 0, 0, 1, 0, 18.010164, 24.854305, 8.076612, 1], "mesh" : 2, "name" : "weapon_GEO"}, {"children" : [0, 1, 2], "name" : "mesh_GRP"}], "scene" : 0, "scenes" : [{"nodes" : [3]}]}